<svg width="100" height="41" viewBox="0 0 100 41" fill="none" xmlns="http://www.w3.org/2000/svg">
<path d="M45.2029 21.3928C46.7927 22.3171 47.5876 23.7036 47.5876 25.5522C47.6089 26.2642 47.4736 26.9722 47.1913 27.6262C46.909 28.2802 46.4866 28.8643 45.9539 29.3372C44.8541 30.3279 43.4152 30.8575 41.9355 30.816H34.2361V12.6559H41.3994C42.8445 12.6147 44.2504 13.1291 45.3277 14.0931C45.8455 14.551 46.2567 15.1169 46.5322 15.7509C46.8077 16.3849 46.9407 17.0716 46.9221 17.7626C46.9426 18.4605 46.7975 19.1533 46.4986 19.7843C46.1998 20.4152 45.7558 20.9665 45.2029 21.3928ZM41.3994 15.9995H37.8108V19.9879H41.3994C41.6573 19.9944 41.9137 19.9473 42.1524 19.8494C42.3911 19.7516 42.6068 19.6051 42.7859 19.4194C42.9701 19.2311 43.1145 19.0076 43.2106 18.7622C43.3067 18.5169 43.3524 18.2547 43.3451 17.9914C43.3527 17.7295 43.3085 17.4687 43.2149 17.224C43.1213 16.9793 42.9802 16.7555 42.7997 16.5656C42.6193 16.378 42.4013 16.2306 42.16 16.133C41.9187 16.0355 41.6595 15.99 41.3994 15.9995ZM41.9447 27.4608C42.2238 27.4686 42.5015 27.4187 42.7604 27.3141C43.0192 27.2095 43.2537 27.0526 43.449 26.8531C43.6469 26.649 43.8016 26.4071 43.904 26.1419C44.0064 25.8767 44.0545 25.5936 44.0452 25.3095C44.0533 25.0294 44.0046 24.7504 43.9022 24.4896C43.7997 24.2287 43.6456 23.9912 43.449 23.7914C43.2537 23.5919 43.0192 23.435 42.7604 23.3304C42.5015 23.2258 42.2238 23.1758 41.9447 23.1836H37.8108V27.4608H41.9447Z" fill="#233237"/>
<path d="M61.734 30.8069L60.5786 27.5395H53.1126L52.0288 30.8069H48.1606L54.5129 12.656H58.9472L65.3503 30.8069H61.734ZM54.2772 24.1936H59.3863L56.7682 16.7784L54.2772 24.1936Z" fill="#233237"/>
<path d="M72.7932 31.1697C70.9954 31.1697 69.4827 30.7677 68.2549 29.9635C67.0516 29.1896 66.1397 28.0378 65.6622 26.6892L68.7217 24.8984C69.4318 26.747 70.8237 27.6713 72.8972 27.6713C73.9 27.6713 74.6349 27.491 75.1016 27.1259C75.3316 26.9575 75.5159 26.7344 75.6378 26.4768C75.7597 26.2192 75.8154 25.9352 75.7997 25.6507C75.7841 25.3661 75.6977 25.0899 75.5484 24.8472C75.3991 24.6044 75.1915 24.4028 74.9445 24.2606C74.373 23.9078 73.3532 23.5227 71.8851 23.1052C71.1846 22.9033 70.4964 22.661 69.8239 22.3796C69.2285 22.1179 68.6636 21.7917 68.1394 21.4068C67.585 21.0118 67.1424 20.4801 66.8546 19.8632C66.5477 19.1794 66.397 18.4358 66.4132 17.6865C66.4132 16.0443 66.9971 14.7349 68.1648 13.7582C69.345 12.7752 70.8418 12.2539 72.3773 12.2909C73.7471 12.2638 75.095 12.6381 76.2547 13.3677C77.3865 14.1065 78.2893 15.147 78.8612 16.3717L75.8573 18.1094C75.1317 16.5535 73.9763 15.7755 72.3911 15.7755C71.7674 15.7395 71.1501 15.9181 70.6419 16.2816C70.4395 16.4338 70.2764 16.6321 70.1659 16.8599C70.0554 17.0877 70.0007 17.3386 70.0064 17.5918C70.0019 17.8638 70.0647 18.1328 70.1893 18.3747C70.3139 18.6166 70.4964 18.8239 70.7205 18.9782C71.1934 19.3341 72.1046 19.7192 73.4541 20.1336C74.0087 20.3046 74.4269 20.4386 74.7134 20.5334C75 20.6281 75.3859 20.776 75.8804 20.9747C76.2763 21.1261 76.6576 21.3133 77.0196 21.5339C77.3425 21.7445 77.6513 21.9761 77.9439 22.2271C78.2557 22.484 78.5228 22.7909 78.7341 23.1353C79.1731 23.9193 79.4009 24.8039 79.395 25.7025C79.395 27.3801 78.7857 28.7111 77.5672 29.6955C76.3487 30.6799 74.7573 31.1713 72.7932 31.1697Z" fill="#233237"/>
<path d="M85.6133 27.3824H93.6524V30.8046H82.0339V12.656H93.523V16.0782H85.6133V19.9418H92.8737V23.3132H85.6133V27.3824Z" fill="#233237"/>
<path d="M18.4329 12.6489H17.4878L6.34766 31.946H29.573L18.4329 12.6489Z" fill="#FFDCB9"/>
<path d="M18.4329 12.6491L21.3952 7.51919L20.6882 7.11019L18.3705 11.124V6.44238H17.5525V11.124L15.2348 7.11019L14.5254 7.51919L17.4901 12.6491H18.4329Z" fill="#914137"/>
<path d="M24.4639 26.3657L21.899 30.807H27.0265L24.4639 26.3657Z" fill="#0FAFAA"/>
<path d="M11.459 26.3657L8.8941 30.807H14.024L11.459 26.3657Z" fill="#0FAFAA"/>
<path d="M17.9592 26.3657L15.3942 30.807H20.5241L17.9592 26.3657Z" fill="#FA6482"/>
</svg>
